<svg version="1.0" xmlns="http://www.w3.org/2000/svg" width="933.333" height="933.333" viewBox="0 0 700 700"><path d="M2.4 224.3c3.3 10.5 32.7 98.8 33.7 101.2.4 1.1 7.9 23.4 16.6 49.5 8.6 26.1 15.8 47.7 16 47.9.4.6 51.3.4 51.9-.1.2-.3 6.7-19.1 14.5-41.9 7.7-22.8 17.9-52.7 22.6-66.4 4.7-13.8 8.7-26 9-27.3.3-1.2.8-2.2 1.2-2.2.3 0 9.3 26.4 20 58.7 10.6 32.4 20.9 63.4 22.8 69l3.5 10.3 11.7.1c22.2.1 40.4 0 40.5-.3.1-.2 11.2-33.4 24.6-73.8 13.4-40.4 28.7-86.6 34.1-102.7l9.7-29.1-22.9-.1c-20.6 0-23 .1-23.8 1.7-.5.9-11.3 33.2-24.2 71.7-12.8 38.5-23.6 70.4-23.9 70.8-.4.5-3.4-7.4-6.7-17.5-6.4-19.3-35-106.7-38.6-117.8-1.2-3.6-2.5-7-3-7.7-.6-.9-6.8-1.2-22.7-1.2-19.5 0-21.9.2-22.5 1.7-.8 1.9-6.5 18.6-27.8 81.2-17.4 50.9-20.6 60.2-21.1 60.7-.2.2-2.7-6.9-5.6-15.9-2.8-9-5.6-17.2-6-18.3-.7-1.6-12.2-36.9-30.2-92.5-1.7-5.2-3.8-11.2-4.6-13.2l-1.5-3.7H.2l2.2 7.2zm403.3 38.3c-.1.1-3.9.4-8.4.8-16.7 1.2-38.7 7.9-50.6 15.3l-4.6 2.9 2.2 4.4c9.1 17.8 14 27 14.4 27 .3 0 3.3-1.6 6.7-3.5 12.9-7.2 26.5-10.5 42-10.1 20.5.6 32.6 9.6 34.3 25.6.5 4.4.3 5-1.3 5.1-1.1 0-13.4.2-27.4.3-26.7.4-35.1 1.4-47 5.7-10.1 3.7-15.8 8-23.2 17.4-5.5 7-8.1 24.8-5.3 35.7 4.8 17.9 19.3 30.2 40.9 34.6 26.9 5.5 55.5-2.1 64.8-17.3l1.8-3v9.7c0 9.5.1 9.8 2.3 9.9 2.3.1 38.3.1 40.5 0 1.1-.1 1.3-9.7 1-53.4l-.4-53.2-2.7-8.6c-3.5-11.6-8.3-19.5-16.2-26.7-10.5-9.6-26.9-16.4-43-17.8-6.7-.6-20.4-1.1-20.8-.8zm36.4 95.6c.1.7.1 4.6 0 8.6 0 6-.5 8.2-2.5 11.6-2.7 4.6-7.9 9.7-12.4 12-12.2 6.3-33.6 5-40.8-2.5-7.3-7.6-6-20.9 2.4-26.1 5.8-3.6 13.3-4.6 34-4.7 14.7-.1 19.2.2 19.3 1.1zm70.6-74c4.6 10.6 9 20.7 9.8 22.4.8 1.7 4.3 9.8 7.9 18 3.5 8.2 12.1 27.9 19.1 43.9 7 15.9 13.3 30.3 14 32 1.8 4.1 3.9 8.9 7.4 16.9l3.1 6.7-2.5 4.9c-3.5 7-8.3 12-13.4 14.3-8.7 3.8-23.5 1.7-33.4-4.9-2.1-1.4-4-2.4-4.2-2.2-.7.7-15.5 29.3-16 30.9-1 3 11 9.9 22.2 12.8 7.7 2.1 12.7 2.6 23.8 2.5 18.3-.1 31.8-5.1 43.3-15.9 11.7-10.9 13.9-14.9 36.7-68 7.5-17.6 14.7-34.3 16-37 1.2-2.8 4.8-11.1 8-18.5s6.6-15.3 7.6-17.5c1.4-3.2 23.5-54.2 25.6-59.3.4-1-4.1-1.2-22.2-1l-22.8.3L637 279c-3.2 7.4-13.1 30.8-22 52s-16.5 39.1-16.9 39.8c-.4.7-2.1-2.1-4.1-7-1.8-4.6-4.4-10.6-5.6-13.3-1.2-2.8-3.2-7.5-4.4-10.5-1.2-3-2.8-7-3.6-8.8-3-6.9-4.3-9.9-6.9-16.2-1.4-3.6-3.4-8.3-4.4-10.5-1-2.2-5.1-12-9.2-21.7l-7.4-17.8h-48.3l8.5 19.2z"/></svg>