<svg width="32" height="32" xmlns="http://www.w3.org/2000/svg"><path fill="#F7E296" d="M0 0h32v32H0z"/><path fill-rule="evenodd" clip-rule="evenodd" d="M7 26.997V5.003h9.03a10.673 10.673 0 014.25.772 10.504 10.504 0 013.572 2.386 10.755 10.755 0 012.385 3.605A10.59 10.59 0 0126.996 16a10.59 10.59 0 01-.759 4.234 10.754 10.754 0 01-2.385 3.605 10.502 10.502 0 01-3.572 2.387 10.672 10.672 0 01-4.25.77H7zm5-5V10.003h3.978c.792-.03 1.582.184 2.32.461.736.278 1.404.7 1.961 1.238a5.867 5.867 0 011.273 1.99c.281.738.503 1.522.463 2.306.04.784-.182 1.568-.463 2.306a5.867 5.867 0 01-1.273 1.99 5.721 5.721 0 01-1.962 1.238c-.737.278-1.527.495-2.319.465H12z"/></svg>