<svg version="1.0" xmlns="http://www.w3.org/2000/svg" width="933.333" height="933.333" viewBox="0 0 700 700"><path d="M153.2 349.7l.3 240.8h110c84.3 0 112.2-.3 119.5-1.3 67.7-9.2 122.8-41.7 162.8-96 27.6-37.4 42.6-81.5 44.7-131.7 2.6-60.6-13.1-112.6-47.9-159-33.3-44.1-82.1-75.7-135.6-87.5-24.2-5.4-22.3-5.3-142.3-5.7l-111.7-.4.2 240.8zm216.9-129.2c16.4 2.9 35.6 9.7 48.6 17.2 17.3 10.2 29.2 21.4 39.8 37.8 6.5 10 8.7 14.3 13.1 25.8 6.6 17.2 8.5 26.6 9.1 44.2.6 18.7-.6 27.1-6.8 46-13.6 42-40.3 68.5-82.9 82.6-20.5 6.7-23.2 6.9-78.6 6.9H263V219h49.4c38.9 0 51.1.3 57.7 1.5z"/></svg>