<svg version="1.0" xmlns="http://www.w3.org/2000/svg" width="933.333" height="933.333" viewBox="0 0 700 700"><path d="M329 8.6c-11.3 4.7-26.8 11.2-34.5 14.4-7.7 3.2-27.3 11.3-43.5 18-16.2 6.7-30.8 12.8-32.5 13.5-2.8 1.2-31.1 12.9-90.4 37.4-13.5 5.6-24.8 10.4-25.2 10.8-.5.5-13 30.3-27.9 66.3-14.9 36-28.7 69.1-30.5 73.5-3.6 8.4-4.3 10.1-28.9 69.8L-.1 350l9.7 23.3c5.3 12.7 11.8 28.6 14.6 35.2 2.7 6.6 6.4 15.6 8.3 20 1.8 4.4 14.7 35.4 28.5 69C74.9 531 89.9 567.3 94.4 578l8.2 19.5 41.4 17.2c22.8 9.4 43.1 17.8 45 18.7 1.9.8 29.8 12.3 62 25.6s67.6 28 78.8 32.6L350 700l31.3-12.9c17.1-7.1 52.6-21.8 78.7-32.6s64.2-26.6 84.5-35c20.4-8.4 40.6-16.8 45-18.7l8-3.4 5.8-13.9c3.2-7.7 9.5-22.8 13.9-33.5 13.2-32.1 32.8-79.3 34.3-82.5.7-1.7 2.2-5.3 3.3-8 1-2.8 11.7-28.5 23.6-57.3l21.6-52.3-23-55.7c-37-89.1-47-113.4-63.7-153.6l-15.8-38-11-4.6c-6-2.6-23.8-10-39.5-16.5-15.7-6.4-29.8-12.3-31.5-13.1-2.9-1.3-46.4-19.3-67.5-27.9-5.8-2.4-25.3-10.5-43.5-18C367.7 7.2 350.1 0 349.7 0c-.1 0-9.4 3.9-20.7 8.6zm26.3.3c2.3 1.1 17.5 7.5 33.7 14.1 16.2 6.7 30.9 12.8 32.5 13.6 1.7.7 9.1 3.8 16.5 6.8s28.6 11.7 47 19.4c18.4 7.6 50.2 20.8 70.5 29.2l37.1 15.3 37.8 91.6c20.9 50.4 38.7 93.4 39.6 95.6 1 2.2 6.6 15.6 12.4 29.7L693 350l-8.1 19.7c-4.5 10.9-8.7 21.1-9.4 22.8-.8 1.6-5 12-9.6 23-10.5 25.7-22.7 55.2-24.4 59-1.6 3.5-9.4 22.5-17 41-2.9 7.1-11 26.6-17.9 43.3-6.9 16.7-12.6 30.6-12.6 31.1 0 1.9-4.6 4.2-22.5 11.5-10.4 4.3-20.3 8.3-22 9.1-1.6.7-16 6.7-32 13.3-15.9 6.6-44.7 18.5-64 26.5-19.2 8-45.6 18.8-58.5 24.2-12.9 5.3-24.8 10.2-26.5 11-1.6.7-6.5 2.7-10.7 4.5l-7.7 3.1-46.3-19.1c-25.5-10.6-47.6-19.8-49.3-20.5-1.6-.7-14.7-6.1-29-12-43-17.8-107.8-44.6-111-46-1.6-.7-3.9-1.6-5-1.9-1.4-.4-3.2-3.6-6.2-10.9-2.3-5.6-11-26.6-19.3-46.7-8.4-20.1-20.5-49.3-27-65-6.5-15.7-20.4-49.4-30.9-74.8L6.9 349.8l4.7-11.1c2.5-6.2 5.2-12.6 6-14.2.7-1.7 11.5-27.8 23.9-58 12.4-30.3 23.3-56.4 24-58 .8-1.7 6.9-16.3 13.5-32.5 6.7-16.2 15-36.3 18.4-44.5 3.5-8.3 7.1-17.1 8.2-19.6 1.7-4.5 2.2-4.8 9.9-7.9 10.7-4.4 65.2-26.9 69-28.5 3.1-1.3 34.1-14.2 111-46 24.8-10.2 47-19.4 49.5-20.5 5.6-2.4 5.2-2.4 10.3-.1z"/><path d="M268.9 278.4c-.2.2-2.6.6-5.4.9-26.6 2.6-51.3 19.6-61.6 42.3-6 13.1-7.6 30-4.5 45.1 5.9 27.9 27.3 49.2 56.4 55.9 21.4 5 48.3 3 64.9-4.6 2.4-1.1 4.7-2 5.2-2 2.6 0 3.6-3.4 4.6-16 .4-4.1.8-9.2 1.1-11.3.7-6.4-1.8-4.3-6.5 5.3-9.4 19.4-22.6 27.6-44.6 27.4-17.5-.1-30.7-5.7-43.5-18.4-16.9-16.6-24-39.2-20.7-65.5 2.8-22 15.5-40.5 33.9-49.3 18.7-9 42.7-8.6 57.2.9 7.9 5.2 16.6 18.1 19.1 28.1.4 1.6 1.4 2.8 2.1 2.8 1.1 0 1.3-1 .9-4.3-.2-2.3-.7-7.3-1-11-.6-7.4-1.4-13.5-2-15.4-.8-2.4-15.6-8.4-24-9.7-4.8-.8-31-1.8-31.6-1.2zm80.9 2.7c-1.9 1.2-.6 1.8 4.8 2.4 7.7.8 10.6 1.9 12.8 4.9 2.1 2.7 2.1 3.8 2.2 62 .1 64.6.1 65.2-5.4 67.5-2.5 1-7.6 1.8-13 2-1.3.1-2.2.6-2 1.3.6 1.6 55 1.6 55.6 0 .2-.7-.2-1.2-1-1.3-12-.6-14.8-1.5-17.5-5.6-1.5-2.3-1.7-6.1-1.8-32.9l-.1-30.4h43.7c34.1 0 43.8.3 44.1 1.2.2.7.4 14.1.3 29.8-.2 31.2-.5 33.3-5.9 35.8-1.5.8-5.3 1.5-8.3 1.7-3 .1-5.9.7-6.6 1.4-.6.6-.7 1.1-.1 1.2 1.2.1 55.7.1 56.4 0 .2-.1-.1-.6-.7-1.2-.7-.7-3.6-1.3-6.6-1.4-7-.4-11.2-2.6-12.6-6.6-.8-2.2-1-21.3-.8-63l.2-59.7 2.4-2.6c2.5-2.7 5.2-3.5 12.6-4.1 4.5-.3 6.4-1 5.3-2-1.1-1.1-55-.7-56.1.4-.6.6-.7 1.1-.2 1.2 13.5.8 16.8 1.9 19.1 6.7 1.5 3.2 1.7 7.1 1.8 29.9.1 22.8-.1 26.3-1.4 26.4-1.6 0-83.9 0-85.5-.1-1.5 0-1.2-52.6.3-56.2 1.7-4 5.5-5.7 14.6-6.2 2.2-.1 4.2-.8 4.4-1.4.3-1.1-1-1.7-3.1-1.3-1.5.3-44.2 0-47.5-.2-1.7-.2-3.8 0-4.4.4z"/></svg>