<svg width="0" height="0" style="position:absolute">
  <symbol fill="none" viewBox="0 0 10 10" id="icons--cart" xmlns="http://www.w3.org/2000/svg">
    <g clip-path="url(#aclip1)" fill="currentColor">
      <path d="M9.862 2.522a.358.358 0 00-.273-.129H7.658V3.42c0 .471-.404.855-.901.855s-.901-.384-.901-.855V2.393H4.054V3.42c0 .471-.404.855-.9.855-.498 0-.902-.384-.902-.855V2.393H.321a.358.358 0 00-.273.129.397.397 0 00-.09.3l.648 5.963C.618 9.457 1.142 10 1.784 10h6.342c.642 0 1.166-.543 1.178-1.215l.649-5.964a.398.398 0 00-.09-.3z" />
      <path d="M3.153 3.76c.2 0 .36-.153.36-.341v-1.88c0-.528.562-.855 1.082-.855h.9c.548 0 .902.335.902.854v1.88c0 .19.161.343.36.343.199 0 .36-.154.36-.342v-1.88C7.117.646 6.435 0 5.496 0h-.901C3.6 0 2.793.69 2.793 1.538v1.88c0 .19.162.343.36.343z" />
    </g>
    <defs>
      <clipPath id="aclip1">
        <path fill="#fff" d="M0 0h10v10H0z" />
      </clipPath>
    </defs>
  </symbol>
  <symbol fill="none" viewBox="0 0 10 10" id="icons--chart" xmlns="http://www.w3.org/2000/svg">
    <path d="M.917 3.367h1.75v5.716H.917V3.367zM4.183.917h1.634v8.166H4.183V.917zM7.45 5.583h1.633v3.5H7.45v-3.5z" fill="currentColor" />
  </symbol>
  <symbol fill="none" viewBox="0 0 30 30" id="icons--cross" xmlns="http://www.w3.org/2000/svg">
    <path d="M22.95 24.725L15 16.762l-7.95 7.963-1.775-1.775L13.237 15 5.275 7.05 7.05 5.275 15 13.238l7.95-7.95 1.762 1.762-7.95 7.95 7.95 7.95-1.762 1.775z" fill="#fff" opacity=".7" />
  </symbol>
  <symbol fill="none" viewBox="0 0 18 18" id="icons--down" xmlns="http://www.w3.org/2000/svg">
    <path d="M14 4H3l5.5 10L14 4z" fill="#000" />
  </symbol>
  <symbol fill="none" viewBox="0 0 22 22" id="icons--plus" xmlns="http://www.w3.org/2000/svg">
    <path d="M18.7 9.9v2.2h-6.6v6.6H9.9v-6.6H3.3V9.9h6.6V3.3h2.2v6.6h6.6z" fill="#000" fill-opacity=".3" />
  </symbol>
  <symbol fill="none" viewBox="0 0 16 16" id="icons--search" xmlns="http://www.w3.org/2000/svg">
    <path d="M6.667 12a5.301 5.301 0 003.264-1.125l2.931 2.93.943-.942-2.931-2.931A5.3 5.3 0 0012 6.667a5.34 5.34 0 00-5.333-5.334 5.34 5.34 0 00-5.334 5.334A5.34 5.34 0 006.667 12zm0-9.333c2.206 0 4 1.794 4 4s-1.794 4-4 4-4-1.794-4-4 1.794-4 4-4z" fill="#000" />
  </symbol>
  <symbol fill="none" viewBox="0 0 18 18" id="icons--up" xmlns="http://www.w3.org/2000/svg">
    <path d="M3 14h11L8.5 4 3 14z" fill="#000" />
  </symbol>
  <symbol fill="none" viewBox="0 0 13 14" id="icons--user" xmlns="http://www.w3.org/2000/svg">
    <path d="M6.5 2.333c1.197 0 2.167 1.044 2.167 2.334C8.667 5.956 7.697 7 6.5 7 5.303 7 4.333 5.956 4.333 4.667c0-1.29.97-2.334 2.167-2.334zm0 9.334s4.333 0 4.333-1.167c0-1.4-2.112-2.917-4.333-2.917-2.22 0-4.333 1.517-4.333 2.917 0 1.167 4.333 1.167 4.333 1.167z" fill="currentColor" />
  </symbol>
  <symbol fill="none" viewBox="0 0 163 35" id="logo" xmlns="http://www.w3.org/2000/svg">
    <g clip-path="url(#jaclip0)">
      <path fill-rule="evenodd" clip-rule="evenodd" d="M-.151.702v33.6h13.532a15.721 15.721 0 0011.72-4.824 16.459 16.459 0 004.712-11.976 16.457 16.457 0 00-4.712-11.976A15.724 15.724 0 0013.381.702H-.151zM7.582 26.91V8.091h5.8a8.646 8.646 0 016.5 2.568 9.408 9.408 0 012.489 6.84 9.406 9.406 0 01-2.489 6.84 8.642 8.642 0 01-6.5 2.568h-5.8v.003zm34.8-5.952h12.082v-7.3H42.378V8.091h13.291V.702H34.645v33.6H55.91V26.91H42.378v-5.952h.004zm36.343 13.344L89.744.702h-8.458l-7.491 24.72L66.304.702h-8.457l11.019 33.6h9.859zm14.4 0h7.733V.702h-7.733v33.6zm38.615-1.416a15.508 15.508 0 006.041-5.688l-6.67-3.84a7.481 7.481 0 01-3.165 3.024 9.873 9.873 0 01-4.664 1.1 9.594 9.594 0 01-7.177-2.736 9.911 9.911 0 01-2.682-7.248 9.91 9.91 0 012.682-7.248 9.593 9.593 0 017.177-2.736 9.897 9.897 0 014.639 1.08 7.589 7.589 0 013.19 3.048l6.67-3.84a15.874 15.874 0 00-6.09-5.688 17.42 17.42 0 00-8.409-2.088c-9.779-.272-17.797 7.691-17.591 17.472-.208 9.781 7.809 17.747 17.588 17.476 2.95.027 5.859-.691 8.458-2.088h.003zm17.881-11.928h12.082v-7.3h-12.085V8.091h13.29V.702h-21.023v33.6h21.265V26.91h-13.532v-5.952h.003z" fill="currentColor" />
    </g>
    <defs>
      <clipPath id="jaclip0">
        <path fill="#fff" d="M0 0h163v35H0z" />
      </clipPath>
    </defs>
  </symbol>
  <symbol fill="none" viewBox="0 0 27 34" id="logo-ha" xmlns="http://www.w3.org/2000/svg">
    <g clip-path="url(#kclip0)">
      <path d="M13.62.017L13.472 0 0 1.408v24.596L13.473 34l13.43-7.969.042-.025V1.408L13.62.017zm11.399 12.078L13.495 5.32l-.001-.104-.087.05-.088-.056v.109L1.925 12.086V3.139l11.548-1.21L25.02 3.14v8.956h-.001zM13.405 6.769l11.518 6.695-4.479 2.633-7.093-4.21-.014 1.412 5.904 3.503-.86.506-5.03-2.984-.014 1.411 3.827 2.27-.782.521-3.031-1.782-.014 1.409 1.853 1.088-1.8 1.078-11.356-6.733 11.371-6.817zm-11.48 8.318l11.411 6.773.016 1.041-7.942-4.715-.015 1.412 7.979 4.783.018 1.073-7.973-4.728-.013 1.41 8.021 4.81.046.025 8.143-4.86-.011-5.163 3.415-2.03v9.994l-11.548 6.854-11.547-6.853v-9.826z" fill="#F0C52E" />
    </g>
    <defs>
      <clipPath id="kclip0">
        <path fill="#fff" d="M0 0h26.943v34H0z" />
      </clipPath>
    </defs>
  </symbol>
  <symbol fill="none" viewBox="0 0 32 32" id="socials--facebook" xmlns="http://www.w3.org/2000/svg">
    <path d="M31.997 16c0-8.837-7.162-16-15.998-16C7.163 0 0 7.163 0 16c0 7.984 5.85 14.603 13.499 15.803V20.624H9.437v-4.625H13.5v-3.524c0-4.011 2.389-6.226 6.042-6.226 1.751 0 3.582.312 3.582.312V10.5h-2.016c-1.987 0-2.607 1.233-2.607 2.498V16h4.437l-.709 4.625H18.5v11.179c7.648-1.2 13.499-7.819 13.499-15.804h-.002z" fill="#fff" />
  </symbol>
  <symbol fill="none" viewBox="0 0 32 32" id="socials--instagram" xmlns="http://www.w3.org/2000/svg">
    <path d="M20.8 16a4.8 4.8 0 11-9.6 0c0-.274.029-.54.078-.8H9.6v6.395c0 .445.36.805.805.805h11.192a.805.805 0 00.803-.805V15.2h-1.678c.05.26.078.527.078.8zM16 19.2a3.202 3.202 0 10-.002-6.403A3.202 3.202 0 0016 19.2zm3.84-6.56h1.918a.481.481 0 00.482-.48v-1.918a.482.482 0 00-.482-.482H19.84a.482.482 0 00-.482.482v1.918c.002.264.218.48.482.48zM16 .64a15.36 15.36 0 100 30.72A15.36 15.36 0 0016 .64zm8 21.582C24 23.2 23.2 24 22.222 24H9.778C8.8 24 8 23.2 8 22.223V9.777C8 8.8 8.8 8 9.778 8h12.444C23.2 8 24 8.8 24 9.778v12.444z" fill="#fff" />
  </symbol>
  <symbol fill="none" viewBox="0 0 32 32" id="socials--twitter" xmlns="http://www.w3.org/2000/svg">
    <path d="M16 32c-2.167 0-4.24-.422-6.219-1.266-1.979-.843-3.682-1.979-5.11-3.406-1.426-1.427-2.562-3.13-3.405-5.11A15.697 15.697 0 010 16c0-2.167.422-4.24 1.266-6.219.843-1.979 1.979-3.682 3.406-5.11 1.427-1.426 3.13-2.562 5.11-3.405A15.696 15.696 0 0116 0c2.167 0 4.24.422 6.219 1.266 1.979.843 3.682 1.979 5.11 3.406 1.426 1.427 2.562 3.13 3.405 5.11A15.697 15.697 0 0132 16c0 2.167-.422 4.24-1.266 6.219-.843 1.979-1.979 3.682-3.406 5.11-1.427 1.426-3.13 2.562-5.11 3.405A15.698 15.698 0 0116 32zm9.406-24a5.912 5.912 0 00-.562.344l-.61.406-.578.313L23 9.28C22.23 8.427 21.281 8 20.156 8 17.72 8 16.5 9.02 16.5 11.063v1.843c-3.354-.166-5.927-1.396-7.719-3.687C8.261 9.76 8 10.354 8 11c0 1.375.51 2.417 1.531 3.125-.125 0-.302.01-.531.031-.23.021-.411.021-.547 0A1.566 1.566 0 018 14c0 .958.255 1.755.766 2.39.51.636 1.213 1.047 2.109 1.235-.208.25-.5.375-.875.375-.333 0-.625-.094-.875-.281 0 .812.39 1.442 1.172 1.89.781.448 1.661.683 2.64.703-.374.563-.921.985-1.64 1.266A6.246 6.246 0 019 22c-.292 0-.693-.073-1.203-.219A16.21 16.21 0 007 21.563c.333.666 1.016 1.24 2.047 1.718 1.031.48 2.338.719 3.922.719 1.396 0 2.698-.245 3.906-.734 1.208-.49 2.24-1.141 3.094-1.953a12.776 12.776 0 002.203-2.782 13.08 13.08 0 001.375-3.234C23.849 14.182 24 13.083 24 12c0-.042.125-.13.375-.266.25-.135.542-.317.875-.546.333-.23.583-.47.75-.72-1.125 0-1.875.022-2.25.063.73-.437 1.281-1.281 1.656-2.531z" fill="#fff" />
  </symbol>
</svg>
