<svg version="1.0" xmlns="http://www.w3.org/2000/svg" width="933.333" height="933.333" viewBox="0 0 700 700">
  <path d="M151.5 220.4c-17.4 2.8-31 8.5-39.9 16.7-9.8 9-18.7 25.9-22.1 41.9-2.2 10.5-2.2 130.5 0 140.9 4.8 23.1 18.3 42.8 34.6 50.8 14.2 6.9 25.4 9.3 47.6 10 39.1 1.3 63.7-6.7 76-24.7 4.4-6.5 8.7-15.5 11.3-23.5 2-6.1 2.4-9.7 2.8-27.8l.4-20.7H202v14.2c-.1 35.7-5.5 45.8-24.7 45.8-3.7 0-8.5-.5-10.7-1.1-5.7-1.6-11.2-7.3-13.9-14.4l-2.2-6v-72c0-80.8-.1-79.5 7.2-87.5 8.6-9.6 30.9-9 38.6 1.1 4 5.4 4.9 10.2 5.4 30.6l.5 19.3H262l.2-12.8c.3-18.7-.1-23.9-2.3-32-3.5-13.1-13-29-21.4-35.5-5.8-4.6-17.7-9.7-27.6-11.8-12.1-2.7-47.1-3.5-59.4-1.5zm166-.2c-.8 2.2-54.5 257.9-54.5 259.4 0 1.2 4.1 1.4 27.2 1.2l27.2-.3 2.8-14.5c1.5-8 3.9-20.9 5.4-28.8l2.7-14.2h45.4l4.8 29 4.9 29h26.8c19.5 0 26.8-.3 26.8-1.2 0-.6-12.1-59.3-27-130.4-14.8-71.1-27-129.5-27-129.8 0-.3-14.6-.6-32.5-.6-25.2 0-32.7.3-33 1.2zM359 337c4.4 27.2 8.2 50.3 8.4 51.2.4 1.7-.9 1.8-16.8 1.8h-17.3l2.8-16.8c1.5-9.2 5.4-32.7 8.5-52.2 3.2-19.5 5.9-35 6-34.5.2.6 3.9 23.3 8.4 50.5zm78-98.5V258h40v223h53V258h39v-39H437v19.5z"/>
</svg>
