<svg version="1.0" xmlns="http://www.w3.org/2000/svg"
 width="700.000000pt" height="700.000000pt" viewBox="0 0 700.000000 700.000000"
 preserveAspectRatio="xMidYMid meet">
  <g transform="translate(0.000000,700.000000) scale(0.100000,-0.100000)"
fill="#000000" stroke="none">
  <path d="M3324 6410 c-37 -8 -58 -19 -204 -102 -63 -36 -142 -80 -175 -98
-106 -58 -123 -68 -164 -94 -22 -15 -42 -26 -44 -26 -2 0 -59 -31 -126 -70
-68 -38 -125 -70 -129 -70 -3 0 -13 -6 -21 -14 -9 -7 -50 -31 -91 -53 -41 -22
-102 -56 -135 -75 -33 -20 -81 -47 -107 -62 -67 -36 -114 -63 -263 -148 -71
-41 -137 -77 -145 -81 -8 -4 -28 -15 -45 -26 -16 -10 -127 -73 -246 -139 -118
-67 -226 -133 -238 -146 -28 -29 -40 -81 -30 -120 11 -38 43 -71 104 -105 27
-16 147 -84 265 -151 118 -68 235 -134 260 -148 25 -14 252 -143 505 -287 253
-145 483 -275 510 -290 28 -15 55 -31 60 -35 6 -4 33 -20 60 -35 28 -15 96
-54 152 -86 56 -33 107 -59 112 -59 6 0 11 -3 11 -7 0 -5 31 -23 70 -41 54
-27 76 -32 102 -27 29 6 616 335 690 386 15 11 29 19 32 19 2 0 143 80 313
178 366 212 694 402 743 429 65 37 234 135 300 174 71 42 102 82 102 133 0 65
-28 96 -152 165 -14 8 -117 67 -230 131 -113 64 -230 130 -260 147 -30 17
-203 115 -385 218 -181 103 -355 201 -385 217 -30 17 -59 34 -65 38 -5 4 -35
21 -65 37 -30 17 -172 96 -315 177 -143 80 -269 146 -280 147 -11 0 -29 2 -40
3 -11 2 -34 0 -51 -4z"/>
    <path d="M953 4554 c-44 -22 -60 -43 -70 -89 -5 -22 -9 -575 -8 -1230 1 -1163
  1 -1191 20 -1230 19 -37 50 -57 440 -282 231 -134 427 -246 435 -250 13 -6
  142 -79 180 -102 8 -5 80 -47 160 -92 80 -46 217 -125 304 -176 87 -51 160
  -93 162 -93 2 0 38 -21 81 -46 198 -117 237 -136 277 -136 44 0 69 14 102 58
  l27 35 0 1203 c0 1365 9 1236 -87 1296 -52 32 -565 338 -623 371 -17 10 -310
  183 -650 385 -340 202 -632 373 -650 380 -41 18 -60 17 -100 -2z"/>
    <path d="M5649 4551 c-19 -10 -97 -55 -174 -102 -77 -46 -148 -88 -157 -94
  -10 -5 -134 -80 -275 -166 -539 -326 -974 -589 -1148 -693 -192 -116 -244
  -159 -246 -203 -5 -138 -3 -2336 3 -2363 4 -22 20 -47 45 -68 62 -55 94 -46
  304 79 95 57 183 109 194 115 11 5 38 21 60 35 22 14 49 30 60 36 11 7 63 37
  115 69 52 31 228 136 390 232 162 96 329 195 370 220 41 25 84 50 95 56 77 43
  474 284 492 300 13 11 30 39 40 64 15 41 17 136 17 1221 0 1122 -1 1178 -18
  1207 -35 60 -108 83 -167 55z"/>
  </g>
</svg>
