<svg xmlns="http://www.w3.org/2000/svg" xmlns:xlink="http://www.w3.org/1999/xlink" width="0" height="0" style="position:absolute">
	
		<symbol id="icon-arrow--long" viewBox="0 0 90 15">
			<path d="M83.11.77l.06.01.05.02.05.03.05.04.05.04 6.14 6.21.04.04.04.05.03.05.02.06.01.05.01.07.01.06-.01.06-.01.07-.01.05-.02.06-.03.05-.04.05-.04.04-6.14 6.21-.05.04-.05.04-.05.03-.05.02-.06.01-.06.01-.06.01-.06-.01-.06-.01-.06-.01-.05-.02-.05-.03-.05-.04-.05-.04-.04-.04-.04-.05-.03-.05-.02-.06-.02-.06-.01-.06v-.12l.01-.07.02-.05.02-.06.03-.05.04-.05.04-.04 5.6-5.83-5.6-5.83-.04-.04-.04-.05-.03-.05-.02-.06-.02-.05-.01-.07v-.12l.01-.06.02-.06.02-.06.03-.05.04-.05.04-.04.05-.04.05-.04.05-.03.05-.02.06-.01.06-.01.06-.01.06.01.06.01zM78.27 6.9c.33 0 .6.27.6.6 0 .12 0-.12 0 0 0 .33-.27.6-.6.6H1.47c-.33 0-.6-.27-.6-.6 0-.12 0 .12 0 0 0-.33.27-.6.6-.6h76.8z"></path>
		</symbol>
	
		<symbol id="icon-check" viewBox="0 0 54 56">
			<path d="M19.9 55.967a5.84 5.84 0 0 1-2.5-.547 4.939 4.939 0 0 1-1.953-1.64L1.151 34.873C.213 33.675-.152 32.308.057 30.772c.208-1.537.937-2.748 2.187-3.633 1.198-.938 2.565-1.302 4.102-1.094 1.536.208 2.773.912 3.71 2.11l9.376 12.421L43.104 2.608C43.884 1.306 45.03.485 46.54.147c1.51-.339 2.917-.091 4.219.742 1.302.781 2.135 1.927 2.5 3.437.365 1.51.13 2.917-.703 4.22L24.588 53.388a5.386 5.386 0 0 1-1.875 1.875 4.917 4.917 0 0 1-2.578.703H19.9zm46.797 8.047"></path>
		</symbol>
	
		<symbol id="icon-chevron" viewBox="0 0 36.875 20.78125">
			<path d="M4.728 20c-.52.52-1.172.781-1.953.781-.781 0-1.432-.26-1.953-.781-.52-.52-.794-1.172-.82-1.953-.026-.781.247-1.432.82-1.953L16.447.78C16.967.261 17.619 0 18.4 0c.781 0 1.432.26 1.953.781l15.625 15.313c.573.52.86 1.172.86 1.953 0 .781-.287 1.432-.86 1.953-.52.52-1.172.781-1.953.781-.781 0-1.432-.26-1.953-.781L18.4 7.422zM58.4 47.422"></path>
		</symbol>
	
		<symbol id="icon-chevron-thin" viewBox="0 0 68.75 36.796875">
			<path d="M4.688 35.938c-.521.572-1.172.859-1.954.859-.78 0-1.432-.287-1.953-.86C.261 35.417 0 34.78 0 34.023c0-.755.26-1.393.781-1.914L32.421.781C32.944.261 33.595 0 34.376 0c.781 0 1.432.26 1.953.781l31.64 31.328c.522.521.782 1.16.782 1.914 0 .756-.26 1.394-.781 1.914-.521.573-1.172.86-1.953.86-.782 0-1.433-.287-1.954-.86L34.376 7.422zm69.687 20.468"></path>
		</symbol>
	
		<symbol id="icon-clock" viewBox="0 0 29.953125 29.953125">
			<path d="M15.75 7.453v7.875l6.75 4.008-1.125 1.898-7.875-4.78v-9zM6.469 23.484C8.859 25.828 11.695 27 14.977 27c3.28 0 6.105-1.184 8.472-3.55C25.816 21.081 27 18.257 27 14.976c0-3.282-1.184-6.106-3.55-8.473-2.368-2.367-5.192-3.55-8.473-3.55-3.282 0-6.106 1.183-8.473 3.55-2.367 2.367-3.55 5.191-3.55 8.473 0 3.28 1.171 6.117 3.515 8.507zM4.359 4.43C7.313 1.477 10.852 0 14.977 0s7.652 1.465 10.582 4.395c2.93 2.93 4.394 6.457 4.394 10.582 0 4.125-1.465 7.652-4.394 10.582-2.93 2.93-6.457 4.394-10.582 4.394-4.125 0-7.653-1.465-10.582-4.394C1.465 22.629 0 19.102 0 14.977 0 10.852 1.453 7.336 4.36 4.43zm28.618 28.547"></path>
		</symbol>
	
		<symbol id="icon-close" viewBox="0 0 38 38">
			<path d="M.957 32.207c-1.25 1.146-1.276 2.318-.078 3.516s2.37 1.172 3.516-.078l13.906-13.75 13.906 13.75c1.146 1.25 2.318 1.276 3.516.078s1.172-2.37-.078-3.516l-13.75-13.906 13.75-13.906c1.25-1.146 1.276-2.318.078-3.516s-2.37-1.172-3.516.078l-13.906 13.75L4.395.957C3.249-.293 2.077-.319.879.88S-.293 3.25.957 4.395l13.75 13.906zm54.844 18.594"></path>
		</symbol>
	
		<symbol id="icon-email" viewBox="0 0 76.796875 76.71875">
			<path d="M56.875 47.031c0 1.719.26 2.943.781 3.672.521.73 1.406 1.094 2.657 1.094 2.812 0 5.039-1.68 6.68-5.04 1.64-3.359 2.46-7.98 2.46-13.866 0-4.532-.768-8.464-2.305-11.797-1.536-3.334-3.645-6.107-6.328-8.32-2.682-2.214-5.82-3.868-9.414-4.961-3.594-1.094-7.448-1.641-11.562-1.641-4.219 0-8.268.703-12.149 2.11-3.88 1.406-7.304 3.489-10.273 6.25-2.969 2.76-5.339 6.171-7.11 10.234-1.77 4.062-2.656 8.776-2.656 14.14 0 5.104.808 9.623 2.422 13.555 1.615 3.932 3.906 7.24 6.875 9.922 2.969 2.682 6.55 4.7 10.742 6.054 4.193 1.355 8.867 2.032 14.024 2.032 3.49 0 6.614-.222 9.375-.664 2.76-.443 5.937-1.263 9.531-2.461l1.563 6.406a57.074 57.074 0 0 1-10.782 2.344c-3.594.416-6.875.625-9.843.625-6.72 0-12.67-.899-17.852-2.696-5.182-1.796-9.531-4.335-13.047-7.617-3.516-3.281-6.172-7.252-7.969-11.914C.898 49.831 0 44.635 0 38.906c0-5.781 1.003-11.054 3.008-15.82s4.778-8.867 8.32-12.305c3.542-3.437 7.76-6.093 12.656-7.969C28.88.938 34.22 0 40 0c5.99 0 11.289.846 15.898 2.54 4.61 1.692 8.464 3.983 11.563 6.874 3.099 2.89 5.43 6.29 6.992 10.195 1.563 3.907 2.344 8.073 2.344 12.5 0 3.75-.313 7.227-.938 10.43-.625 3.203-1.692 5.99-3.203 8.36-1.51 2.37-3.515 4.231-6.015 5.585-2.5 1.355-5.6 2.032-9.297 2.032-3.386 0-6.107-.703-8.164-2.11-2.058-1.406-3.242-3.593-3.555-6.562-.833 3.333-2.357 5.612-4.57 6.836-2.214 1.224-4.883 1.836-8.008 1.836-2.083 0-4.05-.404-5.899-1.211-1.849-.808-3.476-2.019-4.882-3.633-1.407-1.615-2.526-3.633-3.36-6.055-.833-2.422-1.25-5.273-1.25-8.554 0-3.23.378-6.146 1.133-8.75.755-2.605 1.862-4.818 3.32-6.641a14.75 14.75 0 0 1 5.391-4.219c2.135-.99 4.583-1.484 7.344-1.484 2.969 0 5.364.534 7.187 1.601 1.823 1.068 3.151 2.513 3.985 4.336l2.812-5.078h8.047v28.203zM45.078 34.375c0-2.604-.794-4.505-2.383-5.703-1.588-1.198-3.19-1.797-4.804-1.797-1.771 0-3.464.833-5.078 2.5-1.615 1.667-2.422 4.61-2.422 8.828 0 3.386.677 5.977 2.03 7.774 1.355 1.796 3.178 2.695 5.47 2.695 1.562 0 3.15-.56 4.765-1.68 1.615-1.12 2.422-3.086 2.422-5.898zm33.36 40"></path>
		</symbol>
	
		<symbol id="icon-lines--vert" viewBox="0 0 11 130">
			<path d="M1 0a1 1 0 0 1 1 1v81a1 1 0 0 1-2 0V1a1 1 0 0 1 1-1zm9 47a1 1 0 0 1 1 1v81a1 1 0 0 1-2 0V48a1 1 0 0 1 1-1z"></path>
		</symbol>
	
		<symbol id="icon-mail" viewBox="0 0 73.125 47.96875">
			<path d="M2.385 5.156c.469.26 2.253 1.224 5.352 2.89 3.099 1.668 6.432 3.451 10 5.352 3.567 1.901 6.835 3.66 9.804 5.274 2.969 1.614 4.584 2.474 4.844 2.578.469.26 1.016.456 1.64.586.626.13 1.277.195 1.954.195s1.328-.065 1.953-.195a5.797 5.797 0 0 0 1.64-.586c.26-.104 1.875-.964 4.844-2.578a1311.75 1311.75 0 0 1 9.805-5.274c3.568-1.9 6.901-3.684 10-5.351a838.943 838.943 0 0 0 5.352-2.89c.99-.522 1.731-1.511 2.226-2.97C72.294.73 71.63 0 69.807 0H2.15C.328 0-.336.73.158 2.188c.495 1.458 1.237 2.447 2.227 2.968zm68.125 8.828c-.573.26-2.435 1.211-5.586 2.852-3.151 1.64-6.55 3.411-10.195 5.312l-10.04 5.235c-3.046 1.588-4.752 2.487-5.116 2.695-.678.365-1.277.586-1.797.664-.521.078-1.12.117-1.797.117-.677 0-1.276-.039-1.797-.117-.521-.078-1.12-.3-1.797-.664-.365-.208-2.07-1.107-5.117-2.695-3.047-1.589-6.38-3.334-10-5.235L7.15 16.836c-3.125-1.64-4.974-2.591-5.547-2.852-.781-.416-1.237-.468-1.367-.156-.13.313-.196.651-.196 1.016v29.14c0 .834.456 1.706 1.367 2.618.912.911 1.784 1.367 2.618 1.367h64.062c.833 0 1.706-.456 2.617-1.367.912-.912 1.368-1.784 1.368-2.618v-4.453-9.843-10-4.844c0-.365-.066-.703-.196-1.016-.13-.312-.586-.26-1.367.156zM76.057 60"></path>
		</symbol>
	
		<symbol id="icon-menu" viewBox="0 0 30.023438 20.988281">
			<path d="M28.512 9h-27c-.446 0-.809.135-1.09.404-.281.27-.422.627-.422 1.073 0 .468.14.837.422 1.107.281.27.644.404 1.09.404h27c.445 0 .808-.134 1.09-.404.28-.27.421-.639.421-1.107 0-.446-.14-.803-.421-1.073-.282-.27-.645-.404-1.09-.404zm-27-6.012h27c.445 0 .808-.134 1.09-.404.28-.27.421-.639.421-1.107 0-.446-.14-.803-.421-1.073C29.32.134 28.957 0 28.512 0h-27C1.066 0 .703.135.422.404.14.674 0 1.031 0 1.477c0 .468.14.837.422 1.107.281.27.644.404 1.09.404zm27 15.012h-27c-.446 0-.809.135-1.09.404-.281.27-.422.627-.422 1.073 0 .468.14.837.422 1.107.281.27.644.404 1.09.404h27c.445 0 .808-.134 1.09-.404.28-.27.421-.639.421-1.107 0-.446-.14-.803-.421-1.073-.282-.27-.645-.404-1.09-.404zm4.5 7.488"></path>
		</symbol>
	
		<symbol id="icon-phone" viewBox="0 0 31.428571 31.428571">
			<path d="M31.429 24.821c0 .402-.075.927-.224 1.574-.148.647-.305 1.157-.468 1.53-.313.743-1.22 1.532-2.724 2.365-1.398.76-2.782 1.139-4.151 1.139-.402 0-.797-.026-1.183-.079a9.17 9.17 0 0 1-1.284-.279 19.138 19.138 0 0 1-1.049-.323 87.91 87.91 0 0 1-1.239-.458c-.595-.223-.96-.357-1.094-.402-1.458-.52-2.76-1.138-3.906-1.852-1.89-1.176-3.854-2.783-5.893-4.822-2.038-2.038-3.646-4.003-4.821-5.893-.714-1.145-1.332-2.447-1.853-3.906a47.564 47.564 0 0 0-.402-1.094 87.887 87.887 0 0 1-.457-1.238c-.082-.231-.19-.58-.324-1.05A9.171 9.171 0 0 1 .078 8.75 8.858 8.858 0 0 1 0 7.567c0-1.37.38-2.753 1.138-4.152.834-1.503 1.622-2.41 2.366-2.723.372-.164.882-.32 1.53-.469C5.68.074 6.204 0 6.606 0c.208 0 .365.022.469.067.268.09.662.655 1.183 1.696.164.283.387.685.67 1.206.282.52.543.993.78 1.417.239.424.47.822.693 1.194.044.06.175.246.39.558.216.313.376.577.48.793.104.216.157.428.157.636 0 .298-.212.67-.637 1.116a10.88 10.88 0 0 1-1.384 1.228c-.498.372-.96.766-1.383 1.183-.425.416-.637.759-.637 1.027 0 .133.038.3.112.502.074.2.138.353.19.457.052.105.156.283.312.536.156.253.242.394.257.424 1.13 2.039 2.426 3.787 3.884 5.246 1.458 1.458 3.207 2.753 5.245 3.884.03.015.172.1.424.256.253.157.432.26.536.313.104.052.257.115.458.19.2.074.368.111.502.111.268 0 .61-.212 1.027-.636.416-.424.81-.885 1.183-1.384.372-.498.781-.96 1.228-1.384.446-.424.818-.636 1.116-.636.208 0 .42.052.636.156.216.104.48.264.792.48.313.216.499.346.558.39.372.224.77.455 1.194.693.425.238.897.498 1.418.781.52.283.922.506 1.205.67 1.042.52 1.607.915 1.697 1.183.044.104.067.26.067.468zm0 6.608"></path>
		</symbol>
	
		<symbol id="icon-pin--filled" viewBox="0 0 28.125 40">
			<path d="M13.047 39.297c.208.208.417.39.625.547.156.052.286.078.39.078.105 0 .235-.026.391-.078a2.15 2.15 0 0 0 .625-.547c.313-.313.73-.781 1.25-1.406.521-.625 1.471-1.862 2.852-3.711a70.068 70.068 0 0 0 3.71-5.47c1.094-1.796 2.15-3.892 3.165-6.288 1.015-2.396 1.627-4.636 1.836-6.719.052-.625.078-1.198.078-1.719 0-3.854-1.367-7.148-4.102-9.882C21.133 1.367 17.84 0 13.984 0 10.13 0 6.836 1.367 4.102 4.102 1.367 6.836 0 10.13 0 13.984c0 .573.026 1.172.078 1.797.208 2.032.807 4.232 1.797 6.602.99 2.37 2.096 4.518 3.32 6.445a89.072 89.072 0 0 0 3.633 5.313c1.198 1.614 2.2 2.877 3.008 3.789l1.21 1.367zM7.578 7.657C9.35 5.884 11.484 5 13.984 5c2.5 0 4.623.885 6.368 2.656 1.744 1.771 2.617 3.893 2.617 6.367s-.873 4.597-2.617 6.368c-1.745 1.77-3.868 2.656-6.368 2.656-2.5 0-4.622-.886-6.367-2.656C5.872 18.62 5 16.497 5 14.023s.86-4.596 2.578-6.367zM33.984 37.5"></path>
		</symbol>
	
		<symbol id="icon-scrolldown" viewBox="0 0 240.77 385.23">
			<path d="M120.38 0C54 0 0 54.57 0 121.64v142c0 67.07 54 121.64 120.38 121.64s120.38-54.57 120.38-121.64v-142C240.77 54.57 186.76 0 120.38 0m96.31 267.69v-4.1c0 53.66-43.21 97.31-96.31 97.31s-96.31-43.66-96.31-97.31v-142c0-53.67 43.21-97.31 96.31-97.31s96.31 43.72 96.31 97.36v146.05z"></path><path d="M120.38 185a15 15 0 0 1-15-15v-42.23a15 15 0 1 1 30.1 0v42.13a15 15 0 0 1-15 15"></path>
		</symbol>
	
</svg>
