<svg xmlns="http://www.w3.org/2000/svg"  xmlns:xlink="http://www.w3.org/1999/xlink" version="1.1" preserveAspectRatio="xMidYMid meet" viewBox="0 0 90 15">
  <path d="M83.11 0.77L83.17 0.78L83.22 0.8L83.27 0.83L83.32 0.87L83.37 0.91L89.51 7.12L89.55 7.16L89.59 7.21L89.62 7.26L89.64 7.32L89.65 7.37L89.66 7.44L89.67 7.5L89.66 7.56L89.65 7.63L89.64 7.68L89.62 7.74L89.59 7.79L89.55 7.84L89.51 7.88L83.37 14.09L83.32 14.13L83.27 14.17L83.22 14.2L83.17 14.22L83.11 14.23L83.05 14.24L82.99 14.25L82.93 14.24L82.87 14.23L82.81 14.22L82.76 14.2L82.71 14.17L82.66 14.13L82.61 14.09L82.57 14.05L82.53 14L82.5 13.95L82.48 13.89L82.46 13.83L82.45 13.77L82.45 13.71L82.45 13.65L82.46 13.58L82.48 13.53L82.5 13.47L82.53 13.42L82.57 13.37L82.61 13.33L88.21 7.5L82.61 1.67L82.57 1.63L82.53 1.58L82.5 1.53L82.48 1.47L82.46 1.42L82.45 1.35L82.45 1.29L82.45 1.23L82.46 1.17L82.48 1.11L82.5 1.05L82.53 1L82.57 0.95L82.61 0.91L82.66 0.87L82.71 0.83L82.76 0.8L82.81 0.78L82.87 0.77L82.93 0.76L82.99 0.75L83.05 0.76L83.11 0.77Z" id="e4sqdissPj"/>
  <path d="M78.27 6.9C78.6 6.9 78.87 7.17 78.87 7.5C78.87 7.62 78.87 7.38 78.87 7.5C78.87 7.83 78.6 8.1 78.27 8.1C62.79 8.1 16.95 8.1 1.47 8.1C1.14 8.1 0.87 7.83 0.87 7.5C0.87 7.38 0.87 7.62 0.87 7.5C0.87 7.17 1.14 6.9 1.47 6.9C16.95 6.9 62.79 6.9 78.27 6.9Z" id="bXMMQCtbz"/>
</svg>
