<svg viewBox="0 0 54 56" version="1.1" xmlns="http://www.w3.org/2000/svg">
<path d="M19.900569 55.967015 C19.015148 55.967015 18.181823 55.784726 17.400569 55.420140 C16.619315 55.055555 15.968280 54.508686 15.447444 53.779515 L1.150569 34.873265 C0.213064 33.675343 -0.151515 32.308169 0.056819 30.771703 C0.265153 29.235237 0.994313 28.024311 2.244319 27.138890 C3.442242 26.201386 4.809415 25.836806 6.345881 26.045140 C7.882347 26.253475 9.119314 26.956593 10.056819 28.154515 L19.431819 40.576390 L43.103694 2.607640 C43.884948 1.305551 45.030770 0.485246 46.541194 0.146703 C48.051618 -0.191840 49.457854 0.055553 50.759944 0.888890 C52.062034 1.670144 52.895359 2.815966 53.259944 4.326390 C53.624529 5.836815 53.390156 7.243051 52.556819 8.545140 L24.588069 53.388890 C24.119317 54.170144 23.494323 54.795138 22.713069 55.263890 C21.931815 55.732643 21.072449 55.967015 20.134944 55.967015 C20.082860 55.967015 20.030778 55.967015 19.978694 55.967015 C19.926610 55.967015 19.900569 55.967015 19.900569 55.967015 Z M66.697444 64.013890" style="fill:black"/>
</svg>
