<svg viewBox="0 0 36.875000 20.781250" version="1.1" xmlns="http://www.w3.org/2000/svg">
<path d="M4.728261 20.000000 C4.207425 20.520836 3.556390 20.781250 2.775136 20.781250 C1.993882 20.781250 1.342847 20.520836 0.822011 20.000000 C0.301175 19.479164 0.027740 18.828129 0.001698 18.046875 C-0.024343 17.265621 0.249091 16.614586 0.822011 16.093750 L16.447011 0.781250 C16.967847 0.260414 17.618882 -0.000000 18.400136 -0.000000 C19.181390 -0.000000 19.832425 0.260414 20.353261 0.781250 L35.978261 16.093750 C36.551180 16.614586 36.837636 17.265621 36.837636 18.046875 C36.837636 18.828129 36.551180 19.479164 35.978261 20.000000 C35.457425 20.520836 34.806390 20.781250 34.025136 20.781250 C33.243882 20.781250 32.592847 20.520836 32.072011 20.000000 L18.400136 7.421875 Z M58.400136 47.421875" style="fill:black"/>
</svg>
