<svg viewBox="0 0 68.750000 36.796875" version="1.1" xmlns="http://www.w3.org/2000/svg">
<path d="M4.687500 35.937500 C4.166664 36.510420 3.515629 36.796875 2.734375 36.796875 C1.953121 36.796875 1.302086 36.510420 0.781250 35.937500 C0.260414 35.416664 0.000000 34.778650 0.000000 34.023438 C0.000000 33.268225 0.260414 32.630211 0.781250 32.109375 L32.421875 0.781250 C32.942711 0.260414 33.593746 -0.000000 34.375000 -0.000000 C35.156254 -0.000000 35.807289 0.260414 36.328125 0.781250 L67.968750 32.109375 C68.489586 32.630211 68.750000 33.268225 68.750000 34.023438 C68.750000 34.778650 68.489586 35.416664 67.968750 35.937500 C67.447914 36.510420 66.796879 36.796875 66.015625 36.796875 C65.234371 36.796875 64.583336 36.510420 64.062500 35.937500 L34.375000 7.421875 Z M74.375000 56.406250" style="fill:black"/>
</svg>
