<svg viewBox="0 0 29.953125 29.953125" version="1.1" xmlns="http://www.w3.org/2000/svg">
  <path d="M15.750000 7.453125 L15.750000 15.328125 L22.500000 19.335938 L21.375000 21.234375 L13.500000 16.453125 L13.500000 7.453125 Z M6.468750 23.484375 C8.859387 25.828137 11.695296 27.000000 14.976562 27.000000 C18.257829 27.000000 21.082019 25.816418 23.449219 23.449219 C25.816418 21.082019 27.000000 18.257829 27.000000 14.976562 C27.000000 11.695296 25.816418 8.871106 23.449219 6.503906 C21.082019 4.136707 18.257829 2.953125 14.976562 2.953125 C11.695296 2.953125 8.871106 4.136707 6.503906 6.503906 C4.136707 8.871106 2.953125 11.695296 2.953125 14.976562 C2.953125 18.257829 4.124988 21.093738 6.468750 23.484375 Z M4.359375 4.429688 C7.312515 1.476548 10.851542 -0.000000 14.976562 -0.000000 C19.101583 -0.000000 22.628892 1.464829 25.558594 4.394531 C28.488296 7.324233 29.953125 10.851542 29.953125 14.976562 C29.953125 19.101583 28.488296 22.628892 25.558594 25.558594 C22.628892 28.488296 19.101583 29.953125 14.976562 29.953125 C10.851542 29.953125 7.324233 28.488296 4.394531 25.558594 C1.464829 22.628892 0.000000 19.101583 0.000000 14.976562 C0.000000 10.851542 1.453110 7.335952 4.359375 4.429688 Z M32.976562 32.976562" style="fill:black"/>
</svg>
