<svg viewBox="0 0 38 38" version="1.1" xmlns="http://www.w3.org/2000/svg">
<path d="M0.957451 32.207451 C-0.292555 33.353290 -0.318596 34.525154 0.879326 35.723076 C2.077249 36.920999 3.249112 36.894958 4.394951 35.644951 L18.301201 21.894951 L32.207451 35.644951 C33.353290 36.894958 34.525154 36.920999 35.723076 35.723076 C36.920999 34.525154 36.894958 33.353290 35.644951 32.207451 L21.894951 18.301201 L35.644951 4.394951 C36.894958 3.249112 36.920999 2.077249 35.723076 0.879326 C34.525154 -0.318596 33.353290 -0.292555 32.207451 0.957451 L18.301201 14.707451 L4.394951 0.957451 C3.249112 -0.292555 2.077249 -0.318596 0.879326 0.879326 C-0.318596 2.077249 -0.292555 3.249112 0.957451 4.394951 L14.707451 18.301201 Z M55.801201 50.801201" style="fill:black"/>
</svg>
