<svg viewBox="0 0 76.796875 76.718750" version="1.1" xmlns="http://www.w3.org/2000/svg">
<path d="M56.875000 47.031250 C56.875000 48.750009 57.135414 49.973955 57.656250 50.703125 C58.177086 51.432295 59.062494 51.796875 60.312500 51.796875 C63.125014 51.796875 65.351554 50.117204 66.992188 46.757812 C68.632821 43.398421 69.453125 38.776071 69.453125 32.890625 C69.453125 28.359352 68.684904 24.427100 67.148438 21.093750 C65.611971 17.760400 63.502618 14.986990 60.820312 12.773438 C58.138007 10.559885 55.000018 8.906255 51.406250 7.812500 C47.812482 6.718745 43.958354 6.171875 39.843750 6.171875 C35.624979 6.171875 31.575540 6.874993 27.695312 8.281250 C23.815085 9.687507 20.390640 11.770820 17.421875 14.531250 C14.453110 17.291680 12.083342 20.703105 10.312500 24.765625 C8.541658 28.828145 7.656250 33.541640 7.656250 38.906250 C7.656250 44.010442 8.463534 48.528626 10.078125 52.460938 C11.692716 56.393249 13.984360 59.700507 16.953125 62.382812 C19.921890 65.065118 23.502583 67.083327 27.695312 68.437500 C31.888042 69.791673 36.562474 70.468750 41.718750 70.468750 C45.208351 70.468750 48.333320 70.247398 51.093750 69.804688 C53.854180 69.361977 57.031232 68.541673 60.625000 67.343750 L62.187500 73.750000 C58.593732 74.895839 55.000018 75.677081 51.406250 76.093750 C47.812482 76.510419 44.531265 76.718750 41.562500 76.718750 C34.843716 76.718750 28.893255 75.820321 23.710938 74.023438 C18.528620 72.226554 14.179705 69.687516 10.664062 66.406250 C7.148420 63.124984 4.492196 59.153669 2.695312 54.492188 C0.898429 49.830706 0.000000 44.635445 0.000000 38.906250 C0.000000 33.124971 1.002594 27.851586 3.007812 23.085938 C5.013031 18.320289 7.786441 14.218767 11.328125 10.781250 C14.869809 7.343733 19.088517 4.687509 23.984375 2.812500 C28.880233 0.937491 34.218721 -0.000000 40.000000 -0.000000 C45.989613 -0.000000 51.289039 0.846346 55.898438 2.539062 C60.507836 4.231779 64.361964 6.523423 67.460938 9.414062 C70.559911 12.304702 72.890617 15.703105 74.453125 19.609375 C76.015633 23.515645 76.796875 27.682270 76.796875 32.109375 C76.796875 35.859394 76.484378 39.335921 75.859375 42.539062 C75.234372 45.742204 74.166674 48.528634 72.656250 50.898438 C71.145826 53.268241 69.140637 55.130202 66.640625 56.484375 C64.140613 57.838548 61.041685 58.515625 57.343750 58.515625 C53.958316 58.515625 51.236989 57.812507 49.179688 56.406250 C47.122386 54.999993 45.937502 52.812515 45.625000 49.843750 C44.791663 53.177100 43.268240 55.455723 41.054688 56.679688 C38.841135 57.903652 36.171891 58.515625 33.046875 58.515625 C30.963531 58.515625 28.997405 58.111983 27.148438 57.304688 C25.299470 56.497392 23.671882 55.286466 22.265625 53.671875 C20.859368 52.057284 19.739587 50.039075 18.906250 47.617188 C18.072913 45.195300 17.656250 42.343766 17.656250 39.062500 C17.656250 35.833317 18.033850 32.916680 18.789062 30.312500 C19.544275 27.708320 20.651034 25.494801 22.109375 23.671875 C23.567716 21.848949 25.364573 20.442713 27.500000 19.453125 C29.635427 18.463537 32.083320 17.968750 34.843750 17.968750 C37.812515 17.968750 40.208324 18.502599 42.031250 19.570312 C43.854176 20.638026 45.182288 22.083324 46.015625 23.906250 L48.828125 18.828125 L56.875000 18.828125 L56.875000 47.031250 Z M45.078125 34.375000 C45.078125 31.770820 44.283862 29.869798 42.695312 28.671875 C41.106763 27.473952 39.505216 26.875000 37.890625 26.875000 C36.119783 26.875000 34.427091 27.708325 32.812500 29.375000 C31.197909 31.041675 30.390625 33.984354 30.390625 38.203125 C30.390625 41.588559 31.067702 44.179679 32.421875 45.976562 C33.776048 47.773446 35.598947 48.671875 37.890625 48.671875 C39.453133 48.671875 41.041659 48.111985 42.656250 46.992188 C44.270841 45.872390 45.078125 43.906264 45.078125 41.093750 Z M78.437500 74.375000" style="fill:black"/>
</svg>
