<svg viewBox="0 0 73.125000 47.968750" version="1.1" xmlns="http://www.w3.org/2000/svg">
<path d="M2.385009 5.156250 C2.853761 5.416668 4.637598 6.380200 7.736571 8.046875 C10.835545 9.713550 14.168845 11.497386 17.736571 13.398438 C21.304298 15.299489 24.572494 17.057284 27.541259 18.671875 C30.510024 20.286466 32.124591 21.145833 32.385009 21.250000 C32.853761 21.510418 33.400631 21.705729 34.025634 21.835938 C34.650637 21.966146 35.301672 22.031250 35.978759 22.031250 C36.655846 22.031250 37.306881 21.966146 37.931884 21.835938 C38.556887 21.705729 39.103757 21.510418 39.572509 21.250000 C39.832927 21.145833 41.447494 20.286466 44.416259 18.671875 C47.385024 17.057284 50.653220 15.299489 54.220946 13.398438 C57.788673 11.497386 61.121973 9.713550 64.220946 8.046875 C67.319920 6.380200 69.103757 5.416668 69.572509 5.156250 C70.562097 4.635414 71.304277 3.645841 71.799071 2.187500 C72.293866 0.729159 71.629810 -0.000000 69.806884 -0.000000 L2.150634 -0.000000 C0.327708 -0.000000 -0.336348 0.729159 0.158446 2.187500 C0.653241 3.645841 1.395421 4.635414 2.385009 5.156250 Z M70.510009 13.984375 C69.937089 14.244793 68.075129 15.195304 64.924071 16.835938 C61.773014 18.476571 58.374611 20.247386 54.728759 22.148438 C51.082907 24.049489 47.736587 25.794263 44.689696 27.382812 C41.642806 28.971362 39.937094 29.869791 39.572509 30.078125 C38.895422 30.442710 38.296470 30.664062 37.775634 30.742188 C37.254798 30.820313 36.655846 30.859375 35.978759 30.859375 C35.301672 30.859375 34.702720 30.820313 34.181884 30.742188 C33.661048 30.664062 33.062096 30.442710 32.385009 30.078125 C32.020424 29.869791 30.314712 28.971362 27.267821 27.382812 C24.220931 25.794263 20.887631 24.049489 17.267821 22.148438 C13.648012 20.247386 10.275650 18.476571 7.150634 16.835938 C4.025618 15.195304 2.176679 14.244793 1.603759 13.984375 C0.822505 13.567706 0.366780 13.515623 0.236571 13.828125 C0.106362 14.140627 0.041259 14.479165 0.041259 14.843750 C0.041259 15.000001 0.041259 16.614568 0.041259 19.687500 C0.041259 22.760432 0.041259 26.093732 0.041259 29.687500 C0.041259 33.281268 0.041259 36.562485 0.041259 39.531250 C0.041259 42.500015 0.041259 43.984375 0.041259 43.984375 C0.041259 44.817712 0.496984 45.690100 1.408446 46.601562 C2.319909 47.513025 3.192296 47.968750 4.025634 47.968750 L68.088134 47.968750 C68.921471 47.968750 69.793859 47.513025 70.705321 46.601562 C71.616784 45.690100 72.072509 44.817712 72.072509 43.984375 C72.072509 43.984375 72.072509 42.500015 72.072509 39.531250 C72.072509 36.562485 72.072509 33.281268 72.072509 29.687500 C72.072509 26.093732 72.072509 22.760432 72.072509 19.687500 C72.072509 16.614568 72.072509 15.000001 72.072509 14.843750 C72.072509 14.479165 72.007405 14.140627 71.877196 13.828125 C71.746987 13.515623 71.291263 13.567706 70.510009 13.984375 Z M76.056884 60.000000" style="fill:black"/>
</svg>
