<svg viewBox="0 0 30.023438 20.988281" version="1.1" xmlns="http://www.w3.org/2000/svg">
<path d="M28.511719 9.000000 L1.511719 9.000000 C1.066404 9.000000 0.703126 9.134764 0.421875 9.404297 C0.140624 9.673829 0.000000 10.031248 0.000000 10.476562 C0.000000 10.945315 0.140624 11.314452 0.421875 11.583984 C0.703126 11.853517 1.066404 11.988281 1.511719 11.988281 L28.511719 11.988281 C28.957033 11.988281 29.320311 11.853517 29.601562 11.583984 C29.882814 11.314452 30.023438 10.945315 30.023438 10.476562 C30.023438 10.031248 29.882814 9.673829 29.601562 9.404297 C29.320311 9.134764 28.957033 9.000000 28.511719 9.000000 Z M1.511719 2.988281 L28.511719 2.988281 C28.957033 2.988281 29.320311 2.853517 29.601562 2.583984 C29.882814 2.314452 30.023438 1.945315 30.023438 1.476562 C30.023438 1.031248 29.882814 0.673829 29.601562 0.404297 C29.320311 0.134764 28.957033 -0.000000 28.511719 -0.000000 L1.511719 -0.000000 C1.066404 -0.000000 0.703126 0.134764 0.421875 0.404297 C0.140624 0.673829 0.000000 1.031248 0.000000 1.476562 C0.000000 1.945315 0.140624 2.314452 0.421875 2.583984 C0.703126 2.853517 1.066404 2.988281 1.511719 2.988281 Z M28.511719 18.000000 L1.511719 18.000000 C1.066404 18.000000 0.703126 18.134764 0.421875 18.404297 C0.140624 18.673829 0.000000 19.031248 0.000000 19.476562 C0.000000 19.945315 0.140624 20.314452 0.421875 20.583984 C0.703126 20.853517 1.066404 20.988281 1.511719 20.988281 L28.511719 20.988281 C28.957033 20.988281 29.320311 20.853517 29.601562 20.583984 C29.882814 20.314452 30.023438 19.945315 30.023438 19.476562 C30.023438 19.031248 29.882814 18.673829 29.601562 18.404297 C29.320311 18.134764 28.957033 18.000000 28.511719 18.000000 Z M33.011719 25.488281" style="fill:black"/>
</svg>
