<svg viewBox="0 0 31.428571 31.428571" version="1.1" xmlns="http://www.w3.org/2000/svg">
<path d="M31.428571 24.821429 C31.428571 25.223216 31.354167 25.747765 31.205357 26.395089 C31.056547 27.042414 30.900298 27.552081 30.736607 27.924107 C30.424106 28.668158 29.516377 29.456841 28.013393 30.290179 C26.614576 31.049111 25.230662 31.428571 23.861607 31.428571 C23.459819 31.428571 23.065478 31.402530 22.678571 31.350446 C22.291665 31.298363 21.863842 31.205358 21.395089 31.071429 C20.926337 30.937499 20.576638 30.829614 20.345982 30.747768 C20.115326 30.665922 19.702384 30.513394 19.107143 30.290179 C18.511902 30.066963 18.147322 29.933036 18.013393 29.888393 C16.555052 29.367557 15.252982 28.750004 14.107143 28.035714 C12.217252 26.860113 10.252986 25.252986 8.214286 23.214286 C6.175585 21.175585 4.568458 19.211319 3.392857 17.321429 C2.678568 16.175590 2.061015 14.873519 1.540179 13.415179 C1.495535 13.281249 1.361608 12.916670 1.138393 12.321429 C0.915177 11.726187 0.762649 11.313245 0.680804 11.082589 C0.598958 10.851933 0.491072 10.502234 0.357143 10.033482 C0.223214 9.564730 0.130209 9.136907 0.078125 8.750000 C0.026041 8.363093 0.000000 7.968752 0.000000 7.566964 C0.000000 6.197910 0.379460 4.813995 1.138393 3.415179 C1.971730 1.912195 2.760413 1.004466 3.504464 0.691964 C3.876490 0.528273 4.386157 0.372025 5.033482 0.223214 C5.680807 0.074404 6.205355 -0.000000 6.607143 -0.000000 C6.815477 -0.000000 6.971726 0.022321 7.075893 0.066964 C7.343751 0.156250 7.738093 0.721721 8.258929 1.763393 C8.422620 2.046132 8.645832 2.447914 8.928571 2.968750 C9.211311 3.489586 9.471725 3.962051 9.709821 4.386161 C9.947918 4.810270 10.178570 5.208331 10.401786 5.580357 C10.446429 5.639881 10.576636 5.825891 10.792411 6.138393 C11.008186 6.450894 11.168154 6.715029 11.272321 6.930804 C11.376489 7.146578 11.428571 7.358630 11.428571 7.566964 C11.428571 7.864585 11.216520 8.236605 10.792411 8.683036 C10.368301 9.129467 9.906997 9.538689 9.408482 9.910714 C8.909968 10.282740 8.448663 10.677081 8.024554 11.093750 C7.600444 11.510419 7.388393 11.852677 7.388393 12.120536 C7.388393 12.254465 7.425595 12.421874 7.500000 12.622768 C7.574405 12.823662 7.637649 12.976190 7.689732 13.080357 C7.741816 13.184524 7.845981 13.363094 8.002232 13.616071 C8.158483 13.869049 8.244048 14.010417 8.258929 14.040179 C9.389887 16.078879 10.684517 17.827374 12.142857 19.285714 C13.601198 20.744055 15.349692 22.038685 17.388393 23.169643 C17.418155 23.184524 17.559523 23.270089 17.812500 23.426339 C18.065477 23.582590 18.244047 23.686756 18.348214 23.738839 C18.452381 23.790923 18.604910 23.854166 18.805804 23.928571 C19.006697 24.002977 19.174106 24.040179 19.308036 24.040179 C19.575894 24.040179 19.918153 23.828127 20.334821 23.404018 C20.751490 22.979909 21.145831 22.518604 21.517857 22.020089 C21.889883 21.521575 22.299105 21.060270 22.745536 20.636161 C23.191967 20.212051 23.563987 20.000000 23.861607 20.000000 C24.069942 20.000000 24.281993 20.052083 24.497768 20.156250 C24.713543 20.260417 24.977677 20.420386 25.290179 20.636161 C25.602680 20.851936 25.788690 20.982143 25.848214 21.026786 C26.220240 21.250001 26.618301 21.480654 27.042411 21.718750 C27.466520 21.956846 27.938985 22.217260 28.459821 22.500000 C28.980657 22.782740 29.382439 23.005952 29.665179 23.169643 C30.706850 23.690479 31.272321 24.084820 31.361607 24.352679 C31.406250 24.456846 31.428571 24.613094 31.428571 24.821429 Z M31.428571 31.428571" style="fill:black"/>
</svg>