<svg viewBox="0 0 28.125000 40.000000" version="1.1" xmlns="http://www.w3.org/2000/svg">
<path d="M13.046875 39.296875 C13.255209 39.505209 13.463541 39.687499 13.671875 39.843750 C13.828126 39.895834 13.958333 39.921875 14.062500 39.921875 C14.166667 39.921875 14.296874 39.895834 14.453125 39.843750 C14.713543 39.687499 14.921874 39.505209 15.078125 39.296875 C15.390627 38.984373 15.807289 38.515628 16.328125 37.890625 C16.848961 37.265622 17.799472 36.028655 19.179688 34.179688 C20.559903 32.330720 21.796870 30.507821 22.890625 28.710938 C23.984380 26.914054 25.039057 24.817720 26.054688 22.421875 C27.070318 20.026030 27.682291 17.786469 27.890625 15.703125 C27.942709 15.078122 27.968750 14.505211 27.968750 13.984375 C27.968750 10.130189 26.601576 6.835951 23.867188 4.101562 C21.132799 1.367174 17.838561 -0.000000 13.984375 -0.000000 C10.130189 -0.000000 6.835951 1.367174 4.101562 4.101562 C1.367174 6.835951 0.000000 10.130189 0.000000 13.984375 C0.000000 14.557295 0.026041 15.156247 0.078125 15.781250 C0.286459 17.812510 0.885412 20.013009 1.875000 22.382812 C2.864588 24.752616 3.971348 26.901032 5.195312 28.828125 C6.419277 30.755218 7.630202 32.526034 8.828125 34.140625 C10.026048 35.755216 11.028642 37.018225 11.835938 37.929688 C12.643233 38.841150 13.046875 39.296875 13.046875 39.296875 Z M7.578125 7.656250 C9.348967 5.885408 11.484363 5.000000 13.984375 5.000000 C16.484388 5.000000 18.606762 5.885408 20.351562 7.656250 C22.096363 9.427092 22.968750 11.549467 22.968750 14.023438 C22.968750 16.497408 22.096363 18.619783 20.351562 20.390625 C18.606762 22.161467 16.484388 23.046875 13.984375 23.046875 C11.484363 23.046875 9.361988 22.161467 7.617188 20.390625 C5.872387 18.619783 5.000000 16.497408 5.000000 14.023438 C5.000000 11.549467 5.859366 9.427092 7.578125 7.656250 Z M33.984375 37.500000" style="fill:black"/>
</svg>